# xmcd
#
# Track frame offsets:
#	150
#	16965
#	29389
#	43311
#	60955
#	74212
#	88351
#	100151
#	114917
#	127959
#	141536
#	155971
#	170058
#	185757
#	200087
#
# Disc length: 2830 seconds
#
# Revision: 0
# Processed by: cddbd v1.5.2PL0 Copyright (c) Steve Scherf et al.
# Submitted via: EasyCDDAExtractor 9.1.3.1
#
DISCID=ea0b0c0f
DTITLE=Ann Murray - Country Hits
DYEAR=1987
DGENRE=Country
TTITLE0=Time Don't Run Out On Me
TTITLE1=Walk Right Back
TTITLE2=Cotton Jenny
TTITLE3=Nobody Loves Me Like You Do
TTITLE4=He Thinks I Still Care
TTITLE5=Another Sleepless Night
TTITLE6=Hey Baby
TTITLE7=I Don't Think I'm Ready for You
TTITLE8=It's All I Can Do
TTITLE9=Just Another Woman in Love
TTITLE10=A Little Good News
TTITLE11=Lucky Me
TTITLE12=Somebody's Always Saying Goodbye
TTITLE13=Son of a Rotten Gambler
TTITLE14=Blessed Are The Believers
EXTD=
EXTT0=
EXTT1=
EXTT2=
EXTT3=
EXTT4=
EXTT5=
EXTT6=
EXTT7=
EXTT8=
EXTT9=
EXTT10=
EXTT11=
EXTT12=
EXTT13=
EXTT14=
PLAYORDER=
